# xmcd
#
# Track frame offsets:
#	150
#	10049
#	23045
#	35069
#	48120
#	60439
#	72223
#	83796
#	95457
#	108069
#	122741
#	138509
#	154533
#	165994
#	179305
#	196447
#	213771
#	224955
#	237987
#	248241
#
# Disc length: 3486 seconds
#
# Revision: 1
# Processed by: cddbd v1.5.1PL2 Copyright (c) Steve Scherf et al.
# Submitted via: dBpowerAMP V4.0
#
DISCID=090d9c14
DTITLE=John Lee Hooker - Don't Look Back
DYEAR=2004
DGENRE=Blues
TTITLE0=Dimples
TTITLE1=Unfriendly Woman
TTITLE2=Everybody Rockin'
TTITLE3=I'm So Excited
TTITLE4=Crawlin' Black Spider
TTITLE5=Little Wheel
TTITLE6=I Love You, Honey
TTITLE7=Boogie Chillun
TTITLE8=Hobo Blues
TTITLE9=Moanin' Blues
TTITLE10=Dirty Ground Hog
TTITLE11=My First Wife Left Me
TTITLE12=Boom Boom
TTITLE13=Whiskey And Wimmen
TTITLE14=Process
TTITLE15=Blues Before Sunrise
TTITLE16=This Is Hip
TTITLE17=Birmingham Blues
TTITLE18=Big Legs, Tight Skirt
TTITLE19=Don't Look Back
EXTD=
EXTT0=
EXTT1=
EXTT2=
EXTT3=
EXTT4=
EXTT5=
EXTT6=
EXTT7=
EXTT8=
EXTT9=
EXTT10=
EXTT11=
EXTT12=
EXTT13=
EXTT14=
EXTT15=
EXTT16=
EXTT17=
EXTT18=
EXTT19=
PLAYORDER=
